<?xml version="1.0" encoding="UTF-8"?>
<svg width="24" height="24" version="1.1" viewBox="0 0 24 24" xmlns="http://www.w3.org/2000/svg">
 <defs>
  <style id="current-color-scheme" type="text/css">.ColorScheme-Text {
        color:#232629;
      }</style>
 </defs>
 <g class="ColorScheme-Text" fill="currentColor" transform="translate(1,1)">
  <path d="m9.1953 2.3574a1 1 0 0 0-0.99219 1.0078l0.14453 15.287a1 1 0 0 0 1.0078 0.99023 1 1 0 0 0 0.99219-1.0078l-0.14453-15.287a1 1 0 0 0-1.0078-0.99023z"/>
  <path d="m12.045 2.4688a1 1 0 0 0-1.043 0.95508 1 1 0 0 0 0.95312 1.043s0.77739 0.047738 1.5039 0.36914c0.72652 0.3214 1.2574 0.69011 1.248 1.75-0.0094 1.0716-0.58092 1.5546-1.3066 1.9375-0.72572 0.38293-1.4746 0.48438-1.4746 0.48438a1 1 0 0 0-0.87109 1.1133 1 1 0 0 0 1.1133 0.87109s1.0677-0.1197 2.166-0.69922c1.0983-0.57952 2.3564-1.8003 2.373-3.6895 0.01671-1.9008-1.3056-3.0961-2.4395-3.5977-1.1338-0.50159-2.2227-0.53711-2.2227-0.53711z"/>
 </g>
</svg>
