<?xml version="1.0" encoding="UTF-8"?>
<svg width="24" height="24" version="1.1" viewBox="0 0 24 24" xmlns="http://www.w3.org/2000/svg">
 <defs>
  <style id="current-color-scheme" type="text/css">.ColorScheme-Text {
        color:#232629;
      }</style>
 </defs>
 <g transform="translate(1,1)">
  <path class="ColorScheme-Text" d="m11 1.8555a9.1443 9.1443 0 0 0-1.3008 0.09375 9.1443 9.1443 0 0 0-1.2754 0.27734 9.1443 9.1443 0 0 0-1.2227 0.45508 9.1443 9.1443 0 0 0-1.1445 0.625 9.1443 9.1443 0 0 0-1.0449 0.7832 9.1443 9.1443 0 0 0-0.92187 0.92188 9.1443 9.1443 0 0 0-0.7832 1.0449 9.1443 9.1443 0 0 0-0.625 1.1445 9.1443 9.1443 0 0 0-0.45508 1.2227 9.1443 9.1443 0 0 0-0.27734 1.2754 9.1443 9.1443 0 0 0-0.09375 1.3008 9.1443 9.1443 0 0 0 0.09375 1.3008 9.1443 9.1443 0 0 0 0.27734 1.2754 9.1443 9.1443 0 0 0 0.45508 1.2227 9.1443 9.1443 0 0 0 0.625 1.1445 9.1443 9.1443 0 0 0 0.7832 1.0449 9.1443 9.1443 0 0 0 0.92187 0.92188 9.1443 9.1443 0 0 0 1.0449 0.7832 9.1443 9.1443 0 0 0 1.1445 0.625 9.1443 9.1443 0 0 0 1.2227 0.45508 9.1443 9.1443 0 0 0 1.2754 0.27734 9.1443 9.1443 0 0 0 1.3008 0.09375 9.1443 9.1443 0 0 0 1.3008-0.09375 9.1443 9.1443 0 0 0 1.2754-0.27734 9.1443 9.1443 0 0 0 1.2227-0.45508 9.1443 9.1443 0 0 0 1.1445-0.625 9.1443 9.1443 0 0 0 1.0449-0.7832 9.1443 9.1443 0 0 0 0.92188-0.92188 9.1443 9.1443 0 0 0 0.7832-1.0449 9.1443 9.1443 0 0 0 0.625-1.1445 9.1443 9.1443 0 0 0 0.45508-1.2227 9.1443 9.1443 0 0 0 0.27734-1.2754 9.1443 9.1443 0 0 0 0.09375-1.3008 9.1443 9.1443 0 0 0-0.01172-0.44922 9.1443 9.1443 0 0 0-0.0332-0.44726 9.1443 9.1443 0 0 0-0.05469-0.44531 9.1443 9.1443 0 0 0-0.076171-0.44141 9.1443 9.1443 0 0 0-0.097656-0.43945 9.1443 9.1443 0 0 0-0.12109-0.43164 9.1443 9.1443 0 0 0-0.14062-0.42578 9.1443 9.1443 0 0 0-0.16211-0.41992 9.1443 9.1443 0 0 0-0.18164-0.41016 9.1443 9.1443 0 0 0-0.20117-0.40039 9.1443 9.1443 0 0 0-0.2207-0.39062 9.1443 9.1443 0 0 0-0.24023-0.37891 9.1443 9.1443 0 0 0-0.25781-0.36719 9.1443 9.1443 0 0 0-0.27734-0.35352 9.1443 9.1443 0 0 0-0.29297-0.33984 9.1443 9.1443 0 0 0-0.30859-0.32617 9.1443 9.1443 0 0 0-0.32617-0.30859 9.1443 9.1443 0 0 0-0.33984-0.29297 9.1443 9.1443 0 0 0-0.35352-0.27734 9.1443 9.1443 0 0 0-0.36719-0.25781 9.1443 9.1443 0 0 0-0.37891-0.24023 9.1443 9.1443 0 0 0-0.39062-0.2207 9.1443 9.1443 0 0 0-0.40039-0.20117 9.1443 9.1443 0 0 0-0.41016-0.18164 9.1443 9.1443 0 0 0-0.41992-0.16211 9.1443 9.1443 0 0 0-0.42578-0.14062 9.1443 9.1443 0 0 0-0.43164-0.12109 9.1443 9.1443 0 0 0-0.43945-0.097656 9.1443 9.1443 0 0 0-0.44141-0.076172 9.1443 9.1443 0 0 0-0.44531-0.054688 9.1443 9.1443 0 0 0-0.44726-0.033203 9.1443 9.1443 0 0 0-0.44922-0.011719zm0 2.4531a1.5 1.5 0 0 1 0.18164 0.011719 1.5 1.5 0 0 1 0.17773 0.03125 1.5 1.5 0 0 1 0.17188 0.054687 1.5 1.5 0 0 1 0.16602 0.074219 1.5 1.5 0 0 1 0.1543 0.09375 1.5 1.5 0 0 1 0.14258 0.11133 1.5 1.5 0 0 1 0.12891 0.12891 1.5 1.5 0 0 1 0.11133 0.14258 1.5 1.5 0 0 1 0.09375 0.1543 1.5 1.5 0 0 1 0.07422 0.16602 1.5 1.5 0 0 1 0.05469 0.17188 1.5 1.5 0 0 1 0.03125 0.17773 1.5 1.5 0 0 1 0.011715 0.18164 1.5 1.5 0 0 1-0.074219 0.46289 1.5 1.5 0 0 1-0.21289 0.41797 1.5 1.5 0 0 1-0.33203 0.33203 1.5 1.5 0 0 1-0.41797 0.21289 1.5 1.5 0 0 1-0.46289 0.074219 1.5 1.5 0 0 1-0.46289-0.074219 1.5 1.5 0 0 1-0.41797-0.21289 1.5 1.5 0 0 1-0.33203-0.33203 1.5 1.5 0 0 1-0.21289-0.41797 1.5 1.5 0 0 1-0.074219-0.46289 1.5 1.5 0 0 1 0.074219-0.46289 1.5 1.5 0 0 1 0.21289-0.41797 1.5 1.5 0 0 1 0.33203-0.33203 1.5 1.5 0 0 1 0.41797-0.21289 1.5 1.5 0 0 1 0.46289-0.074219zm-0.04883 3.7891a0.73594 0.73594 0 0 1 0.31055 0.029297 0.73594 0.73594 0 0 1 0.27148 0.1543 0.73594 0.73594 0 0 1 0.18164 0.25391l3.5957 8.2422a0.73586 0.73586 0 0 1 0.04102 0.12109 0.73586 0.73586 0 0 1 0.01953 0.12695 0.73586 0.73586 0 0 1-0.0039 0.12891 0.73586 0.73586 0 0 1-0.02539 0.125 0.73586 0.73586 0 0 1-0.04687 0.11914 0.73586 0.73586 0 0 1-0.06641 0.10938 0.73586 0.73586 0 0 1-0.08594 0.09766 0.73586 0.73586 0 0 1-0.09961 0.08008 0.73586 0.73586 0 0 1-0.11328 0.06055 0.73586 0.73586 0 0 1-0.37695 0.05664 0.73586 0.73586 0 0 1-0.35352-0.13867 0.73586 0.73586 0 0 1-0.23828-0.29883l-2.6133-5.9883-1 5.8184a0.73586 0.73586 0 0 1-0.1582 0.3457 0.73586 0.73586 0 0 1-0.3125 0.2207 0.73586 0.73586 0 0 1-0.37891 0.03516 0.73586 0.73586 0 0 1-0.3457-0.16016 0.73586 0.73586 0 0 1-0.21875-0.31055 0.73586 0.73586 0 0 1-0.035156-0.37891l1.416-8.2422a0.73594 0.73594 0 0 1 0.11719-0.28906 0.73594 0.73594 0 0 1 0.22461-0.2168 0.73594 0.73594 0 0 1 0.29492-0.10156z" fill="currentColor"/>
 </g>
</svg>
